<?xml version="1.0" standalone="no"?>
<!DOCTYPE svg PUBLIC "-//W3C//DTD SVG 20010904//EN"
 "http://www.w3.org/TR/2001/REC-SVG-20010904/DTD/svg10.dtd">
<svg version="1.0" xmlns="http://www.w3.org/2000/svg"
 width="700.000000pt" height="700.000000pt" viewBox="0 0 700.000000 700.000000"
 preserveAspectRatio="xMidYMid meet">
<metadata>
Created by potrace 1.14, written by Peter Selinger 2001-2017
</metadata>
<g transform="translate(0.000000,700.000000) scale(0.100000,-0.100000)"
fill="#000000" stroke="none">
<path d="M915 5931 c-11 -5 -29 -19 -40 -31 -18 -20 -21 -40 -25 -203 l-5
-181 -195 -2 c-217 -1 -280 -13 -380 -68 -122 -67 -230 -215 -259 -354 -8 -38
-11 -567 -11 -1805 0 -1909 -3 -1808 57 -1933 42 -89 151 -195 244 -238 41
-19 97 -39 124 -45 35 -7 956 -10 3075 -10 3301 -1 3084 -4 3203 55 122 62
207 155 263 289 l29 70 0 1800 c0 1535 -2 1807 -14 1850 -42 146 -157 280
-291 342 -108 49 -2 47 -2460 49 -1268 1 -2308 2 -2312 3 -4 0 -8 82 -10 181
l-3 180 -28 27 -27 28 -458 2 c-251 1 -466 -2 -477 -6z m782 -307 c-1 -85 -3
-103 -16 -106 -9 -2 -151 -4 -316 -3 l-300 0 -3 106 -3 107 319 -1 319 0 0
-103z m4871 -338 c81 -27 145 -83 184 -163 l33 -68 2 -406 3 -406 -881 0 -880
0 -55 78 c-291 413 -749 692 -1241 756 -76 10 -380 10 -462 0 -129 -16 -344
-72 -451 -119 -124 -54 -314 -160 -373 -208 -7 -5 -41 -33 -77 -61 -95 -76
-227 -213 -303 -315 -37 -49 -71 -94 -77 -101 -5 -7 -10 -16 -10 -21 0 -5
-379 -9 -884 -9 l-885 0 2 406 2 406 26 55 c14 31 41 72 58 93 39 44 121 86
187 95 26 4 1393 7 3038 6 2825 -1 2994 -2 3044 -18z m-2801 -430 c493 -88
915 -396 1143 -837 57 -110 131 -310 144 -389 3 -19 12 -73 20 -120 21 -126
14 -395 -13 -528 -106 -508 -430 -920 -896 -1138 -153 -71 -357 -127 -509
-139 -77 -6 -272 -6 -309 0 -18 2 -50 7 -72 9 -241 28 -518 144 -737 309 -76
58 -208 184 -268 257 -164 201 -302 499 -335 725 -3 23 -8 52 -11 65 -4 14 -8
99 -9 190 -4 202 18 351 75 521 161 482 524 849 1000 1012 58 20 121 39 140
42 19 3 53 10 75 15 22 5 69 12 105 16 36 3 67 8 68 9 11 10 311 -5 389 -19z
m-1928 -873 c-37 -84 -78 -212 -99 -309 -33 -151 -41 -233 -41 -390 1 -159 7
-215 47 -419 28 -142 144 -406 248 -565 65 -99 80 -119 151 -199 241 -271 560
-469 898 -557 264 -68 547 -77 812 -23 348 70 683 251 925 500 145 149 240
283 330 464 99 199 153 372 175 560 4 28 8 61 11 75 11 63 4 331 -11 423 -13
74 -17 95 -26 137 -17 76 -60 212 -90 283 l-28 67 824 0 823 0 1 -1232 c0
-1245 -1 -1282 -36 -1352 -26 -51 -97 -119 -153 -145 l-55 -26 -3024 -1
c-1818 -1 -3039 2 -3060 8 -97 25 -183 96 -224 186 l-22 47 -2 1258 -3 1257
825 0 824 0 -20 -47z"/>
<path d="M5564 5071 c-17 -11 -36 -32 -41 -48 -5 -15 -9 -132 -8 -259 0 -205
2 -233 18 -258 34 -51 42 -51 526 -51 l451 1 32 32 32 32 1 242 c2 266 -2 286
-55 313 -25 13 -96 15 -477 15 -423 0 -450 -1 -479 -19z m797 -199 c6 -40 2
-195 -5 -200 -12 -7 -605 -9 -617 -2 -9 6 -12 58 -10 152 l1 56 315 0 c173 0
315 -3 316 -6z"/>
<path d="M3397 4664 c-1 -1 -30 -5 -65 -8 -266 -27 -562 -165 -771 -362 -197
-185 -331 -411 -397 -671 -32 -125 -35 -156 -39 -316 -4 -233 40 -428 145
-638 196 -394 585 -676 1025 -745 99 -16 445 -7 476 12 3 2 20 6 38 9 68 12
219 66 303 109 76 39 193 109 208 126 3 3 25 21 50 41 128 104 219 210 327
384 23 38 82 165 102 222 152 437 76 932 -197 1287 -231 300 -568 497 -927
542 -55 6 -272 13 -278 8z m245 -219 c173 -17 406 -111 554 -223 342 -258 512
-663 460 -1092 -36 -295 -212 -590 -462 -778 -116 -87 -314 -180 -418 -196
-21 -4 -41 -8 -45 -10 -16 -10 -118 -19 -226 -21 -528 -7 -1005 360 -1135 875
-157 624 221 1258 845 1419 127 33 273 42 427 26z"/>
<path d="M3438 4221 c-58 -46 -53 -143 9 -174 15 -8 64 -17 108 -21 359 -28
653 -314 681 -661 11 -133 30 -168 98 -181 35 -6 90 21 107 52 27 51 7 232
-41 368 -28 83 -92 199 -149 270 -175 219 -418 348 -681 363 -97 5 -107 4
-132 -16z"/>
<path d="M3065 3393 c-73 -14 -100 -59 -91 -153 20 -223 178 -408 393 -464 86
-23 164 -21 196 4 59 47 54 141 -11 174 -15 7 -53 16 -85 20 -151 17 -267 136
-283 292 -4 32 -15 71 -25 86 -20 28 -62 46 -94 41z"/>
</g>
</svg>
